<svg xmlns="http://www.w3.org/2000/svg" width="190" height="37" fill="none"><path fill="#171923" d="M51.433 27.183c-1.494 0-2.888-.269-4.147-.79a9.4 9.4 0 0 1-3.291-2.283c-.924-1.008-1.663-2.233-2.183-3.66-.52-1.445-.773-3.074-.773-4.904 0-2.418.437-4.483 1.327-6.213.873-1.73 2.099-3.073 3.66-4.013 1.562-.94 3.359-1.41 5.407-1.41 2.637 0 4.736.604 6.297 1.83 1.562 1.225 2.637 2.905 3.208 5.07l-3.292.572c-.453-1.344-1.192-2.402-2.2-3.208-1.007-.789-2.283-1.209-3.828-1.209-1.578-.016-2.905.336-3.946 1.058-1.058.722-1.847 1.713-2.368 3.006s-.806 2.787-.806 4.5c-.017 1.713.252 3.207.773 4.484.52 1.276 1.326 2.283 2.384 2.989 1.058.722 2.385 1.074 3.963 1.091 1.276.017 2.368-.218 3.291-.705.924-.487 1.646-1.21 2.183-2.166.538-.957.89-2.116 1.041-3.51h-4.349v-2.62h7.792c.017.185.033.437.05.74.017.302.017.503.017.587 0 2.066-.403 3.913-1.192 5.541q-1.21 2.445-3.476 3.829c-1.528.924-3.376 1.394-5.542 1.394M71.416 27.183c-1.68 0-3.14-.386-4.366-1.142a7.66 7.66 0 0 1-2.855-3.123c-.672-1.327-1.007-2.871-1.007-4.601 0-1.746.335-3.291 1.024-4.618.688-1.326 1.645-2.367 2.871-3.106 1.226-.74 2.67-1.109 4.316-1.109 1.679 0 3.14.387 4.366 1.142a7.66 7.66 0 0 1 2.854 3.124q1.008 1.989 1.008 4.584c0 1.746-.336 3.29-1.024 4.618a7.6 7.6 0 0 1-2.872 3.123c-1.192.739-2.653 1.108-4.315 1.108m0-3.056c1.612 0 2.804-.537 3.593-1.629.79-1.075 1.192-2.485 1.192-4.181 0-1.746-.403-3.157-1.209-4.198-.806-1.058-1.998-1.578-3.577-1.578-1.09 0-1.98.251-2.686.738-.705.487-1.226 1.176-1.562 2.032s-.52 1.864-.52 3.006q0 2.645 1.209 4.232c.806 1.04 1.998 1.578 3.56 1.578M89.736 27.183c-1.68 0-3.14-.386-4.366-1.142a7.66 7.66 0 0 1-2.855-3.123c-.671-1.327-1.007-2.871-1.007-4.601 0-1.746.336-3.291 1.024-4.618.689-1.326 1.646-2.367 2.871-3.106 1.226-.74 2.67-1.109 4.316-1.109 1.68 0 3.14.387 4.366 1.142a7.66 7.66 0 0 1 2.854 3.124q1.008 1.989 1.008 4.584c0 1.746-.336 3.29-1.024 4.618a7.6 7.6 0 0 1-2.872 3.123c-1.209.739-2.653 1.108-4.315 1.108m0-3.056c1.612 0 2.804-.537 3.593-1.629.79-1.075 1.192-2.485 1.192-4.181 0-1.746-.403-3.157-1.209-4.198-.806-1.058-1.998-1.578-3.576-1.578-1.092 0-1.982.251-2.687.738s-1.226 1.176-1.562 2.032c-.335.857-.52 1.864-.52 3.006q0 2.645 1.209 4.232c.806 1.04 1.981 1.578 3.56 1.578M107.418 27.183c-1.562 0-2.905-.386-4.047-1.159q-1.713-1.158-2.62-3.174c-.621-1.343-.923-2.854-.923-4.533s.302-3.19.94-4.534c.622-1.327 1.512-2.385 2.653-3.157q1.713-1.16 4.081-1.159c1.578 0 2.922.386 3.996 1.159 1.075.772 1.898 1.83 2.452 3.157.554 1.343.823 2.838.823 4.517s-.286 3.19-.84 4.517c-.554 1.326-1.377 2.401-2.468 3.174-1.092.806-2.435 1.192-4.047 1.192m.453-2.939c1.075 0 1.931-.252 2.603-.756.672-.503 1.159-1.209 1.478-2.098.319-.89.47-1.915.47-3.073 0-1.16-.151-2.183-.47-3.073s-.806-1.579-1.461-2.082c-.655-.504-1.495-.74-2.502-.74-1.075 0-1.965.27-2.653.79-.689.52-1.209 1.242-1.545 2.132s-.504 1.881-.504 2.99c0 1.108.168 2.115.504 3.005s.839 1.612 1.528 2.133c.655.503 1.511.772 2.552.772m4.551 2.468V14.64h-.37V4.346h3.258v22.367zM117.795 12.557v-2.62h10.26v2.62zm2.788 14.156V9.35q0-.63.05-1.36c.034-.487.118-.957.269-1.428a3.5 3.5 0 0 1 .755-1.292c.42-.47.89-.79 1.394-.991a4.5 4.5 0 0 1 1.511-.336c.504-.034.958-.05 1.394-.05h2.116v2.67h-1.965c-.772 0-1.343.184-1.712.57-.387.387-.571.907-.571 1.612V26.73h-3.241zm10.747-19.53v-3.14h3.24v3.14zm0 19.53V9.938h3.24v16.775zM138.617 26.713V9.938h2.888V14l-.403-.52a5.8 5.8 0 0 1 .806-1.478 4.8 4.8 0 0 1 1.142-1.108c.42-.303.89-.554 1.428-.722a7.4 7.4 0 0 1 1.612-.32c.554-.033 1.074 0 1.578.085v3.039c-.554-.151-1.159-.185-1.83-.118a4.06 4.06 0 0 0-1.847.639 4 4 0 0 0-1.243 1.242 5.2 5.2 0 0 0-.655 1.629 8.5 8.5 0 0 0-.201 1.88v8.464zM149.985 26.713V9.938h2.888v4.852h.37v11.923zm10.059 0 .016-10.394c0-1.226-.302-2.183-.923-2.872-.621-.688-1.444-1.041-2.485-1.041-1.025 0-1.848.353-2.486 1.058-.621.705-.94 1.629-.94 2.77l-1.545-.99c0-1.092.269-2.082.789-2.939a5.57 5.57 0 0 1 2.15-2.032c.907-.503 1.914-.738 3.056-.738 1.192 0 2.2.251 3.039.755a4.93 4.93 0 0 1 1.915 2.1c.436.906.654 1.947.654 3.14l-.016 11.2h-3.224zm10.041 0 .017-10.462c0-1.209-.302-2.149-.924-2.838-.621-.671-1.444-1.024-2.451-1.024-.622 0-1.192.135-1.696.42-.521.285-.924.705-1.243 1.276s-.47 1.276-.47 2.116l-1.562-.79c-.016-1.175.235-2.216.756-3.106a5.5 5.5 0 0 1 2.133-2.065c.906-.487 1.914-.739 3.022-.739 1.814 0 3.207.537 4.215 1.629.991 1.091 1.494 2.535 1.494 4.332l-.016 11.234h-3.275zM183.183 27.167c-2.032 0-3.695-.454-4.988-1.344-1.276-.907-2.065-2.166-2.367-3.811l3.325-.521c.201.873.688 1.562 1.444 2.065.755.504 1.679.756 2.804.756 1.007 0 1.813-.202 2.384-.621q.857-.63.857-1.713c0-.42-.101-.773-.303-1.041q-.302-.403-1.259-.756c-.638-.235-1.629-.537-2.939-.89q-2.166-.554-3.425-1.209c-.84-.436-1.444-.923-1.797-1.511-.352-.571-.537-1.276-.537-2.082 0-1.008.268-1.898.806-2.653.537-.756 1.293-1.344 2.284-1.764.973-.42 2.132-.62 3.442-.62 1.276 0 2.435.2 3.425.604 1.008.403 1.814.974 2.435 1.713.622.738.991 1.611 1.125 2.602l-3.324.605c-.118-.806-.487-1.444-1.142-1.915-.638-.47-1.478-.722-2.502-.755-.991-.034-1.78.117-2.385.487s-.923.873-.923 1.511c0 .37.117.688.352.94s.689.504 1.36.74c.672.234 1.663.52 2.989.856 1.411.369 2.519.755 3.359 1.209.823.436 1.427.957 1.78 1.561.352.605.537 1.344.537 2.2 0 1.662-.604 2.955-1.813 3.896-1.209.99-2.872 1.46-5.004 1.46"/><path fill="#DBB879" d="M0 9.032h31.3v-5.39A3.34 3.34 0 0 0 27.96.3S18.723.602 15.65.602 3.342.3 3.342.3A3.34 3.34 0 0 0 0 3.64z"/><path fill="url(#a)" d="m4.148 30.76 5.558 4.064a10.105 10.105 0 0 0 11.905 0l5.558-4.064a10.08 10.08 0 0 0 4.148-8.144V3.506A3.187 3.187 0 0 0 27.975.3l-2.502.286a87 87 0 0 1-19.613 0L3.342.299A3.207 3.207 0 0 0 0 3.507v19.092a10.11 10.11 0 0 0 4.148 8.16"/><path fill="#000" d="m22.19 15.312-2.905 2.838.689 3.996a.48.48 0 0 1-.185.453.42.42 0 0 1-.269.084.5.5 0 0 1-.218-.05l-3.594-1.88-3.61 1.88a.46.46 0 0 1-.487-.034.44.44 0 0 1-.185-.453l.689-3.996-2.905-2.838a.45.45 0 0 1-.118-.47.48.48 0 0 1 .37-.32l4.013-.587 1.797-3.644c.15-.319.671-.319.84 0l1.796 3.644 4.013.588c.168.033.32.15.37.319a.44.44 0 0 1-.101.47" opacity=".2"/><path fill="#fff" d="m22.19 14.64-2.905 2.838.689 3.996a.48.48 0 0 1-.185.454.42.42 0 0 1-.269.084.5.5 0 0 1-.218-.05l-3.594-1.881-3.61 1.88a.46.46 0 0 1-.487-.033.44.44 0 0 1-.185-.454l.689-3.996L9.21 14.64a.45.45 0 0 1-.118-.47.48.48 0 0 1 .37-.32l4.013-.587 1.797-3.644c.15-.319.671-.319.84 0l1.796 3.644 4.013.588c.168.033.32.15.37.319a.44.44 0 0 1-.101.47"/><defs><linearGradient id="a" x1="0" x2="31.31" y1="18.528" y2="18.528" gradientUnits="userSpaceOnUse"><stop stop-color="#DCB45A"/><stop offset=".15" stop-color="#CFA84F"/><stop offset=".426" stop-color="#AD8733"/><stop offset=".5" stop-color="#A37D2B"/><stop offset=".583" stop-color="#AD8634"/><stop offset=".844" stop-color="#C69F4A"/><stop offset="1" stop-color="#D0A853"/></linearGradient></defs></svg>